<mxfile host="app.diagrams.net" agent="Mozilla/5.0 (Windows NT 10.0; Win64; x64) AppleWebKit/537.36 (KHTML, like Gecko) Chrome/128.0.0.0 Safari/537.36" version="24.7.10">
  <diagram name="Page-1" id="r_Q3lrwqNkRFiCjygjfC">
    <mxGraphModel dx="2261" dy="744" grid="1" gridSize="10" guides="1" tooltips="1" connect="1" arrows="1" fold="1" page="1" pageScale="1" pageWidth="827" pageHeight="1169" math="0" shadow="0">
      <root>
        <mxCell id="0" />
        <mxCell id="1" parent="0" />
        <mxCell id="l8-Kg4PxLdRytkkaWZpK-70" value="AWS Cloud" style="points=[[0,0],[0.25,0],[0.5,0],[0.75,0],[1,0],[1,0.25],[1,0.5],[1,0.75],[1,1],[0.75,1],[0.5,1],[0.25,1],[0,1],[0,0.75],[0,0.5],[0,0.25]];outlineConnect=0;gradientColor=none;html=1;whiteSpace=wrap;fontSize=12;fontStyle=0;container=1;pointerEvents=0;collapsible=0;recursiveResize=0;shape=mxgraph.aws4.group;grIcon=mxgraph.aws4.group_aws_cloud_alt;strokeColor=#232F3E;fillColor=none;verticalAlign=top;align=left;spacingLeft=30;fontColor=#232F3E;dashed=0;" parent="1" vertex="1">
          <mxGeometry x="40" y="280" width="1430" height="1360" as="geometry" />
        </mxCell>
        <mxCell id="l8-Kg4PxLdRytkkaWZpK-72" value="VPC" style="points=[[0,0],[0.25,0],[0.5,0],[0.75,0],[1,0],[1,0.25],[1,0.5],[1,0.75],[1,1],[0.75,1],[0.5,1],[0.25,1],[0,1],[0,0.75],[0,0.5],[0,0.25]];outlineConnect=0;gradientColor=none;html=1;whiteSpace=wrap;fontSize=12;fontStyle=0;container=1;pointerEvents=0;collapsible=0;recursiveResize=0;shape=mxgraph.aws4.group;grIcon=mxgraph.aws4.group_vpc;strokeColor=#248814;fillColor=none;verticalAlign=top;align=left;spacingLeft=30;fontColor=#AAB7B8;dashed=0;" parent="l8-Kg4PxLdRytkkaWZpK-70" vertex="1">
          <mxGeometry x="80" y="400" width="1080" height="600" as="geometry" />
        </mxCell>
        <mxCell id="l8-Kg4PxLdRytkkaWZpK-78" value="Availability zone 1" style="sketch=0;outlineConnect=0;gradientColor=none;html=1;whiteSpace=wrap;fontSize=12;fontStyle=0;shape=mxgraph.aws4.group;grIcon=mxgraph.aws4.group_availability_zone;strokeColor=#545B64;fillColor=none;verticalAlign=top;align=left;spacingLeft=30;fontColor=#545B64;dashed=1;" parent="l8-Kg4PxLdRytkkaWZpK-72" vertex="1">
          <mxGeometry x="40" y="40" width="400" height="540" as="geometry" />
        </mxCell>
        <mxCell id="l8-Kg4PxLdRytkkaWZpK-75" value="Public subnet 1" style="points=[[0,0],[0.25,0],[0.5,0],[0.75,0],[1,0],[1,0.25],[1,0.5],[1,0.75],[1,1],[0.75,1],[0.5,1],[0.25,1],[0,1],[0,0.75],[0,0.5],[0,0.25]];outlineConnect=0;gradientColor=none;html=1;whiteSpace=wrap;fontSize=12;fontStyle=0;container=1;pointerEvents=0;collapsible=0;recursiveResize=0;shape=mxgraph.aws4.group;grIcon=mxgraph.aws4.group_security_group;grStroke=0;strokeColor=#248814;fillColor=#E9F3E6;verticalAlign=top;align=left;spacingLeft=30;fontColor=#248814;dashed=0;" parent="l8-Kg4PxLdRytkkaWZpK-72" vertex="1">
          <mxGeometry x="80" y="80" width="320" height="480" as="geometry" />
        </mxCell>
        <mxCell id="l8-Kg4PxLdRytkkaWZpK-85" value="Availability zone 2" style="sketch=0;outlineConnect=0;gradientColor=none;html=1;whiteSpace=wrap;fontSize=12;fontStyle=0;shape=mxgraph.aws4.group;grIcon=mxgraph.aws4.group_availability_zone;strokeColor=#545B64;fillColor=none;verticalAlign=top;align=left;spacingLeft=30;fontColor=#545B64;dashed=1;" parent="l8-Kg4PxLdRytkkaWZpK-72" vertex="1">
          <mxGeometry x="480" y="40" width="480" height="540" as="geometry" />
        </mxCell>
        <mxCell id="l8-Kg4PxLdRytkkaWZpK-86" value="Public subnet 2" style="points=[[0,0],[0.25,0],[0.5,0],[0.75,0],[1,0],[1,0.25],[1,0.5],[1,0.75],[1,1],[0.75,1],[0.5,1],[0.25,1],[0,1],[0,0.75],[0,0.5],[0,0.25]];outlineConnect=0;gradientColor=none;html=1;whiteSpace=wrap;fontSize=12;fontStyle=0;container=1;pointerEvents=0;collapsible=0;recursiveResize=0;shape=mxgraph.aws4.group;grIcon=mxgraph.aws4.group_security_group;grStroke=0;strokeColor=#248814;fillColor=#E9F3E6;verticalAlign=top;align=left;spacingLeft=30;fontColor=#248814;dashed=0;" parent="l8-Kg4PxLdRytkkaWZpK-72" vertex="1">
          <mxGeometry x="520" y="80" width="410" height="480" as="geometry" />
        </mxCell>
        <mxCell id="l8-Kg4PxLdRytkkaWZpK-89" value="" style="rounded=0;whiteSpace=wrap;html=1;dashed=1;strokeWidth=1;strokeColor=#FF8000;" parent="l8-Kg4PxLdRytkkaWZpK-72" vertex="1">
          <mxGeometry x="120" y="130" width="780" height="410" as="geometry" />
        </mxCell>
        <mxCell id="l8-Kg4PxLdRytkkaWZpK-91" value="" style="sketch=0;points=[[0,0,0],[0.25,0,0],[0.5,0,0],[0.75,0,0],[1,0,0],[0,1,0],[0.25,1,0],[0.5,1,0],[0.75,1,0],[1,1,0],[0,0.25,0],[0,0.5,0],[0,0.75,0],[1,0.25,0],[1,0.5,0],[1,0.75,0]];outlineConnect=0;fontColor=#232F3E;fillColor=#ED7100;strokeColor=#ffffff;dashed=0;verticalLabelPosition=bottom;verticalAlign=top;align=center;html=1;fontSize=12;fontStyle=0;aspect=fixed;shape=mxgraph.aws4.resourceIcon;resIcon=mxgraph.aws4.fargate;" parent="l8-Kg4PxLdRytkkaWZpK-72" vertex="1">
          <mxGeometry x="120" y="130" width="40" height="40" as="geometry" />
        </mxCell>
        <mxCell id="l8-Kg4PxLdRytkkaWZpK-92" value="ECS Fargate Cluster" style="text;html=1;strokeColor=none;fillColor=none;align=center;verticalAlign=middle;whiteSpace=wrap;rounded=0;" parent="l8-Kg4PxLdRytkkaWZpK-72" vertex="1">
          <mxGeometry x="120" y="170" width="120" height="30" as="geometry" />
        </mxCell>
        <mxCell id="l8-Kg4PxLdRytkkaWZpK-95" value="" style="sketch=0;points=[[0,0,0],[0.25,0,0],[0.5,0,0],[0.75,0,0],[1,0,0],[0,1,0],[0.25,1,0],[0.5,1,0],[0.75,1,0],[1,1,0],[0,0.25,0],[0,0.5,0],[0,0.75,0],[1,0.25,0],[1,0.5,0],[1,0.75,0]];outlineConnect=0;fontColor=#232F3E;fillColor=#ED7100;strokeColor=#ffffff;dashed=0;verticalLabelPosition=bottom;verticalAlign=top;align=center;html=1;fontSize=12;fontStyle=0;aspect=fixed;shape=mxgraph.aws4.resourceIcon;resIcon=mxgraph.aws4.fargate;" parent="l8-Kg4PxLdRytkkaWZpK-72" vertex="1">
          <mxGeometry x="220" y="220" width="78" height="78" as="geometry" />
        </mxCell>
        <mxCell id="l8-Kg4PxLdRytkkaWZpK-96" value="" style="sketch=0;points=[[0,0,0],[0.25,0,0],[0.5,0,0],[0.75,0,0],[1,0,0],[0,1,0],[0.25,1,0],[0.5,1,0],[0.75,1,0],[1,1,0],[0,0.25,0],[0,0.5,0],[0,0.75,0],[1,0.25,0],[1,0.5,0],[1,0.75,0]];outlineConnect=0;fontColor=#232F3E;fillColor=#ED7100;strokeColor=#ffffff;dashed=0;verticalLabelPosition=bottom;verticalAlign=top;align=center;html=1;fontSize=12;fontStyle=0;aspect=fixed;shape=mxgraph.aws4.resourceIcon;resIcon=mxgraph.aws4.fargate;" parent="l8-Kg4PxLdRytkkaWZpK-72" vertex="1">
          <mxGeometry x="416" y="220" width="78" height="78" as="geometry" />
        </mxCell>
        <mxCell id="l8-Kg4PxLdRytkkaWZpK-97" value="" style="sketch=0;points=[[0,0,0],[0.25,0,0],[0.5,0,0],[0.75,0,0],[1,0,0],[0,1,0],[0.25,1,0],[0.5,1,0],[0.75,1,0],[1,1,0],[0,0.25,0],[0,0.5,0],[0,0.75,0],[1,0.25,0],[1,0.5,0],[1,0.75,0]];outlineConnect=0;fontColor=#232F3E;fillColor=#ED7100;strokeColor=#ffffff;dashed=0;verticalLabelPosition=bottom;verticalAlign=top;align=center;html=1;fontSize=12;fontStyle=0;aspect=fixed;shape=mxgraph.aws4.resourceIcon;resIcon=mxgraph.aws4.fargate;" parent="l8-Kg4PxLdRytkkaWZpK-72" vertex="1">
          <mxGeometry x="618" y="220" width="78" height="78" as="geometry" />
        </mxCell>
        <mxCell id="l8-Kg4PxLdRytkkaWZpK-98" value="" style="sketch=0;points=[[0,0,0],[0.25,0,0],[0.5,0,0],[0.75,0,0],[1,0,0],[0,1,0],[0.25,1,0],[0.5,1,0],[0.75,1,0],[1,1,0],[0,0.25,0],[0,0.5,0],[0,0.75,0],[1,0.25,0],[1,0.5,0],[1,0.75,0]];outlineConnect=0;fontColor=#232F3E;fillColor=#ED7100;strokeColor=#ffffff;dashed=0;verticalLabelPosition=bottom;verticalAlign=top;align=center;html=1;fontSize=12;fontStyle=0;aspect=fixed;shape=mxgraph.aws4.resourceIcon;resIcon=mxgraph.aws4.fargate;" parent="l8-Kg4PxLdRytkkaWZpK-72" vertex="1">
          <mxGeometry x="421" y="400" width="78" height="78" as="geometry" />
        </mxCell>
        <mxCell id="l8-Kg4PxLdRytkkaWZpK-104" value="car-gateway-service" style="text;html=1;strokeColor=none;fillColor=none;align=center;verticalAlign=middle;whiteSpace=wrap;rounded=0;" parent="l8-Kg4PxLdRytkkaWZpK-72" vertex="1">
          <mxGeometry x="602" y="298" width="110" height="30" as="geometry" />
        </mxCell>
        <mxCell id="l8-Kg4PxLdRytkkaWZpK-105" value="streaming-service" style="text;html=1;strokeColor=none;fillColor=none;align=center;verticalAlign=middle;whiteSpace=wrap;rounded=0;" parent="l8-Kg4PxLdRytkkaWZpK-72" vertex="1">
          <mxGeometry x="395" y="298" width="130" height="30" as="geometry" />
        </mxCell>
        <mxCell id="l8-Kg4PxLdRytkkaWZpK-106" value="ui (legacy)" style="text;html=1;strokeColor=none;fillColor=none;align=center;verticalAlign=middle;whiteSpace=wrap;rounded=0;" parent="l8-Kg4PxLdRytkkaWZpK-72" vertex="1">
          <mxGeometry x="229" y="298" width="60" height="30" as="geometry" />
        </mxCell>
        <mxCell id="l8-Kg4PxLdRytkkaWZpK-107" value="redis" style="text;html=1;strokeColor=none;fillColor=none;align=center;verticalAlign=middle;whiteSpace=wrap;rounded=0;" parent="l8-Kg4PxLdRytkkaWZpK-72" vertex="1">
          <mxGeometry x="430" y="478" width="60" height="30" as="geometry" />
        </mxCell>
        <mxCell id="l8-Kg4PxLdRytkkaWZpK-108" value="" style="endArrow=classic;startArrow=classic;html=1;rounded=0;entryX=0.5;entryY=1;entryDx=0;entryDy=0;exitX=0.5;exitY=0;exitDx=0;exitDy=0;exitPerimeter=0;" parent="l8-Kg4PxLdRytkkaWZpK-72" source="l8-Kg4PxLdRytkkaWZpK-98" target="l8-Kg4PxLdRytkkaWZpK-105" edge="1">
          <mxGeometry width="50" height="50" relative="1" as="geometry">
            <mxPoint x="530" y="340" as="sourcePoint" />
            <mxPoint x="580" y="290" as="targetPoint" />
          </mxGeometry>
        </mxCell>
        <mxCell id="l8-Kg4PxLdRytkkaWZpK-109" value="" style="sketch=0;points=[[0,0,0],[0.25,0,0],[0.5,0,0],[0.75,0,0],[1,0,0],[0,1,0],[0.25,1,0],[0.5,1,0],[0.75,1,0],[1,1,0],[0,0.25,0],[0,0.5,0],[0,0.75,0],[1,0.25,0],[1,0.5,0],[1,0.75,0]];outlineConnect=0;fontColor=#232F3E;fillColor=#ED7100;strokeColor=#ffffff;dashed=0;verticalLabelPosition=bottom;verticalAlign=top;align=center;html=1;fontSize=12;fontStyle=0;aspect=fixed;shape=mxgraph.aws4.resourceIcon;resIcon=mxgraph.aws4.fargate;" parent="l8-Kg4PxLdRytkkaWZpK-72" vertex="1">
          <mxGeometry x="220" y="400" width="78" height="78" as="geometry" />
        </mxCell>
        <mxCell id="l8-Kg4PxLdRytkkaWZpK-110" value="garage-service" style="text;html=1;strokeColor=none;fillColor=none;align=center;verticalAlign=middle;whiteSpace=wrap;rounded=0;" parent="l8-Kg4PxLdRytkkaWZpK-72" vertex="1">
          <mxGeometry x="214" y="478" width="90" height="30" as="geometry" />
        </mxCell>
        <mxCell id="l8-Kg4PxLdRytkkaWZpK-111" value="" style="endArrow=classic;startArrow=classic;html=1;rounded=0;entryX=0;entryY=1;entryDx=0;entryDy=0;exitX=1;exitY=0.5;exitDx=0;exitDy=0;exitPerimeter=0;" parent="l8-Kg4PxLdRytkkaWZpK-72" source="l8-Kg4PxLdRytkkaWZpK-98" target="l8-Kg4PxLdRytkkaWZpK-104" edge="1">
          <mxGeometry width="50" height="50" relative="1" as="geometry">
            <mxPoint x="568" y="410" as="sourcePoint" />
            <mxPoint x="618" y="360" as="targetPoint" />
          </mxGeometry>
        </mxCell>
        <mxCell id="l8-Kg4PxLdRytkkaWZpK-168" value="" style="sketch=0;points=[[0,0,0],[0.25,0,0],[0.5,0,0],[0.75,0,0],[1,0,0],[0,1,0],[0.25,1,0],[0.5,1,0],[0.75,1,0],[1,1,0],[0,0.25,0],[0,0.5,0],[0,0.75,0],[1,0.25,0],[1,0.5,0],[1,0.75,0]];outlineConnect=0;fontColor=#232F3E;fillColor=#8C4FFF;strokeColor=#ffffff;dashed=0;verticalLabelPosition=bottom;verticalAlign=top;align=center;html=1;fontSize=12;fontStyle=0;aspect=fixed;shape=mxgraph.aws4.resourceIcon;resIcon=mxgraph.aws4.cloud_map;" parent="l8-Kg4PxLdRytkkaWZpK-72" vertex="1">
          <mxGeometry x="980" y="298" width="69" height="69" as="geometry" />
        </mxCell>
        <mxCell id="l8-Kg4PxLdRytkkaWZpK-118" value="" style="endArrow=classic;startArrow=classic;html=1;rounded=0;entryX=0;entryY=0.5;entryDx=0;entryDy=0;exitX=1;exitY=0.5;exitDx=0;exitDy=0;entryPerimeter=0;" parent="l8-Kg4PxLdRytkkaWZpK-72" source="l8-Kg4PxLdRytkkaWZpK-89" target="l8-Kg4PxLdRytkkaWZpK-168" edge="1">
          <mxGeometry width="50" height="50" relative="1" as="geometry">
            <mxPoint x="610" y="400" as="sourcePoint" />
            <mxPoint x="980" y="380" as="targetPoint" />
          </mxGeometry>
        </mxCell>
        <mxCell id="l8-Kg4PxLdRytkkaWZpK-116" value="&lt;font style=&quot;font-size: 11px;&quot;&gt;AWS Cloud Map&lt;/font&gt;" style="text;html=1;strokeColor=none;fillColor=none;align=center;verticalAlign=middle;whiteSpace=wrap;rounded=0;" parent="l8-Kg4PxLdRytkkaWZpK-72" vertex="1">
          <mxGeometry x="914.88" y="370" width="99.25" height="30" as="geometry" />
        </mxCell>
        <mxCell id="l8-Kg4PxLdRytkkaWZpK-185" value="&lt;font style=&quot;font-size: 11px;&quot; color=&quot;#007fff&quot;&gt;&lt;b&gt;Socket.IO&lt;/b&gt;&lt;/font&gt;" style="text;html=1;strokeColor=none;fillColor=none;align=center;verticalAlign=middle;whiteSpace=wrap;rounded=0;rotation=0;" parent="l8-Kg4PxLdRytkkaWZpK-72" vertex="1">
          <mxGeometry x="680" y="10" width="60" height="30" as="geometry" />
        </mxCell>
        <mxCell id="l8-Kg4PxLdRytkkaWZpK-186" value="&lt;span style=&quot;color: rgb(255, 51, 153); font-family: Helvetica; font-style: normal; font-variant-ligatures: normal; font-variant-caps: normal; letter-spacing: normal; orphans: 2; text-align: center; text-indent: 0px; text-transform: none; widows: 2; word-spacing: 0px; -webkit-text-stroke-width: 0px; text-decoration-thickness: initial; text-decoration-style: initial; text-decoration-color: initial; float: none; display: inline !important;&quot;&gt;&lt;font style=&quot;font-size: 11px;&quot;&gt;&lt;b style=&quot;&quot;&gt;Websocket&lt;/b&gt;&lt;/font&gt;&lt;/span&gt;" style="text;whiteSpace=wrap;html=1;" parent="l8-Kg4PxLdRytkkaWZpK-72" vertex="1">
          <mxGeometry x="810" y="10" width="60" height="20" as="geometry" />
        </mxCell>
        <mxCell id="sGs659QZt1uN3W4Ckngy-1" value="weather-service" style="sketch=0;points=[[0,0,0],[0.25,0,0],[0.5,0,0],[0.75,0,0],[1,0,0],[0,1,0],[0.25,1,0],[0.5,1,0],[0.75,1,0],[1,1,0],[0,0.25,0],[0,0.5,0],[0,0.75,0],[1,0.25,0],[1,0.5,0],[1,0.75,0]];outlineConnect=0;fontColor=#232F3E;fillColor=#ED7100;strokeColor=#ffffff;dashed=0;verticalLabelPosition=bottom;verticalAlign=top;align=center;html=1;fontSize=12;fontStyle=0;aspect=fixed;shape=mxgraph.aws4.resourceIcon;resIcon=mxgraph.aws4.fargate;" parent="l8-Kg4PxLdRytkkaWZpK-72" vertex="1">
          <mxGeometry x="770" y="220" width="78" height="78" as="geometry" />
        </mxCell>
        <mxCell id="sGs659QZt1uN3W4Ckngy-14" value="&lt;span style=&quot;color: rgb(255, 51, 153); font-family: Helvetica; font-style: normal; font-variant-ligatures: normal; font-variant-caps: normal; letter-spacing: normal; orphans: 2; text-align: center; text-indent: 0px; text-transform: none; widows: 2; word-spacing: 0px; -webkit-text-stroke-width: 0px; text-decoration-thickness: initial; text-decoration-style: initial; text-decoration-color: initial; float: none; display: inline !important;&quot;&gt;&lt;font style=&quot;font-size: 11px;&quot;&gt;&lt;b style=&quot;&quot;&gt;Websocket&lt;/b&gt;&lt;/font&gt;&lt;/span&gt;" style="text;whiteSpace=wrap;html=1;" parent="l8-Kg4PxLdRytkkaWZpK-72" vertex="1">
          <mxGeometry x="1000" y="30" width="60" height="20" as="geometry" />
        </mxCell>
        <mxCell id="q6q-s7w7EBOLDeXrr2Qp-4" value="&lt;font style=&quot;font-size: 11px;&quot; color=&quot;#007fff&quot;&gt;&lt;b&gt;Socket.IO&lt;/b&gt;&lt;/font&gt;" style="text;html=1;strokeColor=none;fillColor=none;align=center;verticalAlign=middle;whiteSpace=wrap;rounded=0;rotation=0;" vertex="1" parent="l8-Kg4PxLdRytkkaWZpK-72">
          <mxGeometry x="940" width="60" height="30" as="geometry" />
        </mxCell>
        <mxCell id="l8-Kg4PxLdRytkkaWZpK-74" value="" style="sketch=0;outlineConnect=0;fontColor=#232F3E;gradientColor=none;fillColor=#8C4FFF;strokeColor=none;dashed=0;verticalLabelPosition=bottom;verticalAlign=top;align=center;html=1;fontSize=12;fontStyle=0;aspect=fixed;pointerEvents=1;shape=mxgraph.aws4.application_load_balancer;" parent="l8-Kg4PxLdRytkkaWZpK-70" vertex="1">
          <mxGeometry x="914" y="305" width="60" height="60" as="geometry" />
        </mxCell>
        <mxCell id="l8-Kg4PxLdRytkkaWZpK-93" value="" style="sketch=0;points=[[0,0,0],[0.25,0,0],[0.5,0,0],[0.75,0,0],[1,0,0],[0,1,0],[0.25,1,0],[0.5,1,0],[0.75,1,0],[1,1,0],[0,0.25,0],[0,0.5,0],[0,0.75,0],[1,0.25,0],[1,0.5,0],[1,0.75,0]];outlineConnect=0;fontColor=#232F3E;fillColor=#8C4FFF;strokeColor=#ffffff;dashed=0;verticalLabelPosition=bottom;verticalAlign=top;align=center;html=1;fontSize=12;fontStyle=0;aspect=fixed;shape=mxgraph.aws4.resourceIcon;resIcon=mxgraph.aws4.api_gateway;" parent="l8-Kg4PxLdRytkkaWZpK-70" vertex="1">
          <mxGeometry x="321" y="160" width="60" height="60" as="geometry" />
        </mxCell>
        <mxCell id="l8-Kg4PxLdRytkkaWZpK-102" value="" style="endArrow=classic;startArrow=classic;html=1;rounded=0;exitX=0.5;exitY=0;exitDx=0;exitDy=0;exitPerimeter=0;strokeColor=#007FFF;strokeWidth=2;" parent="l8-Kg4PxLdRytkkaWZpK-70" source="l8-Kg4PxLdRytkkaWZpK-96" target="l8-Kg4PxLdRytkkaWZpK-74" edge="1">
          <mxGeometry width="50" height="50" relative="1" as="geometry">
            <mxPoint x="610" y="240" as="sourcePoint" />
            <mxPoint x="660" y="190" as="targetPoint" />
          </mxGeometry>
        </mxCell>
        <mxCell id="l8-Kg4PxLdRytkkaWZpK-103" value="" style="endArrow=classic;startArrow=classic;html=1;rounded=0;exitX=0.5;exitY=0;exitDx=0;exitDy=0;exitPerimeter=0;strokeWidth=2;strokeColor=#FF99CC;" parent="l8-Kg4PxLdRytkkaWZpK-70" source="l8-Kg4PxLdRytkkaWZpK-97" target="l8-Kg4PxLdRytkkaWZpK-74" edge="1">
          <mxGeometry width="50" height="50" relative="1" as="geometry">
            <mxPoint x="545" y="390" as="sourcePoint" />
            <mxPoint x="687" y="138" as="targetPoint" />
          </mxGeometry>
        </mxCell>
        <mxCell id="l8-Kg4PxLdRytkkaWZpK-119" value="HTTP API Gateway &lt;br&gt;private integration" style="text;html=1;strokeColor=none;fillColor=none;align=center;verticalAlign=middle;whiteSpace=wrap;rounded=0;" parent="l8-Kg4PxLdRytkkaWZpK-70" vertex="1">
          <mxGeometry x="381" y="190" width="111" height="30" as="geometry" />
        </mxCell>
        <mxCell id="l8-Kg4PxLdRytkkaWZpK-120" value="" style="endArrow=classic;html=1;rounded=0;exitX=0.5;exitY=1;exitDx=0;exitDy=0;exitPerimeter=0;" parent="l8-Kg4PxLdRytkkaWZpK-70" source="l8-Kg4PxLdRytkkaWZpK-93" target="l8-Kg4PxLdRytkkaWZpK-187" edge="1">
          <mxGeometry width="50" height="50" relative="1" as="geometry">
            <mxPoint x="520" y="500" as="sourcePoint" />
            <mxPoint x="349" y="290" as="targetPoint" />
          </mxGeometry>
        </mxCell>
        <mxCell id="l8-Kg4PxLdRytkkaWZpK-122" value="AWS Cloud Map" style="text;html=1;strokeColor=none;fillColor=none;align=center;verticalAlign=middle;whiteSpace=wrap;rounded=0;" parent="l8-Kg4PxLdRytkkaWZpK-70" vertex="1">
          <mxGeometry x="381" y="345" width="100" height="30" as="geometry" />
        </mxCell>
        <mxCell id="l8-Kg4PxLdRytkkaWZpK-123" value="Application Load Balancer" style="text;html=1;strokeColor=none;fillColor=none;align=center;verticalAlign=middle;whiteSpace=wrap;rounded=0;" parent="l8-Kg4PxLdRytkkaWZpK-70" vertex="1">
          <mxGeometry x="980" y="330" width="150" height="30" as="geometry" />
        </mxCell>
        <mxCell id="l8-Kg4PxLdRytkkaWZpK-125" value="" style="sketch=0;outlineConnect=0;fontColor=#232F3E;gradientColor=none;fillColor=#4D27AA;strokeColor=none;dashed=0;verticalLabelPosition=bottom;verticalAlign=top;align=center;html=1;fontSize=12;fontStyle=0;aspect=fixed;pointerEvents=1;shape=mxgraph.aws4.internet_gateway;" parent="l8-Kg4PxLdRytkkaWZpK-70" vertex="1">
          <mxGeometry x="80" y="290" width="60" height="60" as="geometry" />
        </mxCell>
        <mxCell id="l8-Kg4PxLdRytkkaWZpK-126" value="Internet Gateway" style="text;html=1;strokeColor=none;fillColor=none;align=center;verticalAlign=middle;whiteSpace=wrap;rounded=0;" parent="l8-Kg4PxLdRytkkaWZpK-70" vertex="1">
          <mxGeometry x="140" y="290" width="100" height="30" as="geometry" />
        </mxCell>
        <mxCell id="l8-Kg4PxLdRytkkaWZpK-127" value="" style="endArrow=classic;html=1;rounded=0;entryX=0;entryY=0;entryDx=0;entryDy=0;" parent="l8-Kg4PxLdRytkkaWZpK-70" source="l8-Kg4PxLdRytkkaWZpK-125" target="l8-Kg4PxLdRytkkaWZpK-75" edge="1">
          <mxGeometry width="50" height="50" relative="1" as="geometry">
            <mxPoint x="450" y="230" as="sourcePoint" />
            <mxPoint x="500" y="180" as="targetPoint" />
          </mxGeometry>
        </mxCell>
        <mxCell id="l8-Kg4PxLdRytkkaWZpK-129" value="" style="endArrow=classic;html=1;rounded=0;entryX=0;entryY=0;entryDx=0;entryDy=0;" parent="l8-Kg4PxLdRytkkaWZpK-70" source="l8-Kg4PxLdRytkkaWZpK-125" target="l8-Kg4PxLdRytkkaWZpK-86" edge="1">
          <mxGeometry width="50" height="50" relative="1" as="geometry">
            <mxPoint x="450" y="300" as="sourcePoint" />
            <mxPoint x="500" y="250" as="targetPoint" />
          </mxGeometry>
        </mxCell>
        <mxCell id="l8-Kg4PxLdRytkkaWZpK-138" value="&lt;font style=&quot;font-size: 11px;&quot;&gt;on s3:ObjectCreated event&lt;/font&gt;" style="text;html=1;strokeColor=none;fillColor=none;align=center;verticalAlign=middle;whiteSpace=wrap;rounded=0;" parent="l8-Kg4PxLdRytkkaWZpK-70" vertex="1">
          <mxGeometry x="737.75" y="1115.75" width="146.5" height="30" as="geometry" />
        </mxCell>
        <mxCell id="l8-Kg4PxLdRytkkaWZpK-140" value="&lt;font style=&quot;font-size: 11px;&quot;&gt;Log Service&lt;/font&gt;" style="text;html=1;strokeColor=none;fillColor=none;align=center;verticalAlign=middle;whiteSpace=wrap;rounded=0;" parent="l8-Kg4PxLdRytkkaWZpK-70" vertex="1">
          <mxGeometry x="767" y="1192.25" width="72" height="30" as="geometry" />
        </mxCell>
        <mxCell id="l8-Kg4PxLdRytkkaWZpK-141" value="&lt;font style=&quot;font-size: 11px;&quot;&gt;DynamoDB garage table&lt;/font&gt;" style="text;html=1;strokeColor=none;fillColor=none;align=center;verticalAlign=middle;whiteSpace=wrap;rounded=0;" parent="l8-Kg4PxLdRytkkaWZpK-70" vertex="1">
          <mxGeometry x="274" y="1090" width="130" height="30" as="geometry" />
        </mxCell>
        <mxCell id="l8-Kg4PxLdRytkkaWZpK-143" value="" style="endArrow=classic;html=1;rounded=0;entryX=0.5;entryY=0;entryDx=0;entryDy=0;entryPerimeter=0;exitX=0.5;exitY=1;exitDx=0;exitDy=0;exitPerimeter=0;" parent="l8-Kg4PxLdRytkkaWZpK-70" source="l8-Kg4PxLdRytkkaWZpK-155" target="l8-Kg4PxLdRytkkaWZpK-161" edge="1">
          <mxGeometry width="50" height="50" relative="1" as="geometry">
            <mxPoint x="697.5" y="1112" as="sourcePoint" />
            <mxPoint x="697.5" y="1185" as="targetPoint" />
          </mxGeometry>
        </mxCell>
        <mxCell id="l8-Kg4PxLdRytkkaWZpK-144" value="&lt;font style=&quot;font-size: 11px;&quot;&gt;DynamoDB track day table&lt;/font&gt;" style="text;html=1;strokeColor=none;fillColor=none;align=center;verticalAlign=middle;whiteSpace=wrap;rounded=0;" parent="l8-Kg4PxLdRytkkaWZpK-70" vertex="1">
          <mxGeometry x="767" y="1290" width="140.5" height="30" as="geometry" />
        </mxCell>
        <mxCell id="l8-Kg4PxLdRytkkaWZpK-148" value="&lt;font style=&quot;font-size: 11px;&quot;&gt;S3 for Log files&lt;/font&gt;" style="text;html=1;strokeColor=none;fillColor=none;align=center;verticalAlign=middle;whiteSpace=wrap;rounded=0;" parent="l8-Kg4PxLdRytkkaWZpK-70" vertex="1">
          <mxGeometry x="767" y="1072.25" width="92" height="30" as="geometry" />
        </mxCell>
        <mxCell id="l8-Kg4PxLdRytkkaWZpK-153" value="" style="sketch=0;points=[[0,0,0],[0.25,0,0],[0.5,0,0],[0.75,0,0],[1,0,0],[0,1,0],[0.25,1,0],[0.5,1,0],[0.75,1,0],[1,1,0],[0,0.25,0],[0,0.5,0],[0,0.75,0],[1,0.25,0],[1,0.5,0],[1,0.75,0]];outlineConnect=0;fontColor=#232F3E;fillColor=#C925D1;strokeColor=#ffffff;dashed=0;verticalLabelPosition=bottom;verticalAlign=top;align=center;html=1;fontSize=12;fontStyle=0;aspect=fixed;shape=mxgraph.aws4.resourceIcon;resIcon=mxgraph.aws4.dynamodb;" parent="l8-Kg4PxLdRytkkaWZpK-70" vertex="1">
          <mxGeometry x="309" y="1030" width="60" height="60" as="geometry" />
        </mxCell>
        <mxCell id="l8-Kg4PxLdRytkkaWZpK-155" value="" style="sketch=0;points=[[0,0,0],[0.25,0,0],[0.5,0,0],[0.75,0,0],[1,0,0],[0,1,0],[0.25,1,0],[0.5,1,0],[0.75,1,0],[1,1,0],[0,0.25,0],[0,0.5,0],[0,0.75,0],[1,0.25,0],[1,0.5,0],[1,0.75,0]];outlineConnect=0;fontColor=#232F3E;fillColor=#ED7100;strokeColor=#ffffff;dashed=0;verticalLabelPosition=bottom;verticalAlign=top;align=center;html=1;fontSize=12;fontStyle=0;aspect=fixed;shape=mxgraph.aws4.resourceIcon;resIcon=mxgraph.aws4.lambda;" parent="l8-Kg4PxLdRytkkaWZpK-70" vertex="1">
          <mxGeometry x="707" y="1162.25" width="60" height="60" as="geometry" />
        </mxCell>
        <mxCell id="l8-Kg4PxLdRytkkaWZpK-161" value="" style="sketch=0;points=[[0,0,0],[0.25,0,0],[0.5,0,0],[0.75,0,0],[1,0,0],[0,1,0],[0.25,1,0],[0.5,1,0],[0.75,1,0],[1,1,0],[0,0.25,0],[0,0.5,0],[0,0.75,0],[1,0.25,0],[1,0.5,0],[1,0.75,0]];outlineConnect=0;fontColor=#232F3E;fillColor=#C925D1;strokeColor=#ffffff;dashed=0;verticalLabelPosition=bottom;verticalAlign=top;align=center;html=1;fontSize=12;fontStyle=0;aspect=fixed;shape=mxgraph.aws4.resourceIcon;resIcon=mxgraph.aws4.dynamodb;" parent="l8-Kg4PxLdRytkkaWZpK-70" vertex="1">
          <mxGeometry x="707" y="1260" width="60" height="60" as="geometry" />
        </mxCell>
        <mxCell id="l8-Kg4PxLdRytkkaWZpK-163" value="" style="sketch=0;points=[[0,0,0],[0.25,0,0],[0.5,0,0],[0.75,0,0],[1,0,0],[0,1,0],[0.25,1,0],[0.5,1,0],[0.75,1,0],[1,1,0],[0,0.25,0],[0,0.5,0],[0,0.75,0],[1,0.25,0],[1,0.5,0],[1,0.75,0]];outlineConnect=0;fontColor=#232F3E;fillColor=#7AA116;strokeColor=#ffffff;dashed=0;verticalLabelPosition=bottom;verticalAlign=top;align=center;html=1;fontSize=12;fontStyle=0;aspect=fixed;shape=mxgraph.aws4.resourceIcon;resIcon=mxgraph.aws4.s3;" parent="l8-Kg4PxLdRytkkaWZpK-70" vertex="1">
          <mxGeometry x="707" y="1042.25" width="60" height="60" as="geometry" />
        </mxCell>
        <mxCell id="l8-Kg4PxLdRytkkaWZpK-176" value="" style="endArrow=classic;startArrow=classic;html=1;rounded=0;entryX=0.5;entryY=1;entryDx=0;entryDy=0;exitX=0.5;exitY=0;exitDx=0;exitDy=0;exitPerimeter=0;" parent="l8-Kg4PxLdRytkkaWZpK-70" source="l8-Kg4PxLdRytkkaWZpK-153" target="l8-Kg4PxLdRytkkaWZpK-110" edge="1">
          <mxGeometry width="50" height="50" relative="1" as="geometry">
            <mxPoint x="720" y="780" as="sourcePoint" />
            <mxPoint x="770" y="730" as="targetPoint" />
          </mxGeometry>
        </mxCell>
        <mxCell id="l8-Kg4PxLdRytkkaWZpK-177" value="" style="endArrow=classic;html=1;rounded=0;entryX=0.5;entryY=0;entryDx=0;entryDy=0;entryPerimeter=0;exitX=0.5;exitY=1;exitDx=0;exitDy=0;exitPerimeter=0;" parent="l8-Kg4PxLdRytkkaWZpK-70" source="l8-Kg4PxLdRytkkaWZpK-163" target="l8-Kg4PxLdRytkkaWZpK-155" edge="1">
          <mxGeometry width="50" height="50" relative="1" as="geometry">
            <mxPoint x="1085" y="999.5" as="sourcePoint" />
            <mxPoint x="1135" y="949.5" as="targetPoint" />
          </mxGeometry>
        </mxCell>
        <mxCell id="l8-Kg4PxLdRytkkaWZpK-178" value="" style="endArrow=classic;html=1;rounded=0;entryX=0.5;entryY=0;entryDx=0;entryDy=0;entryPerimeter=0;exitX=0.5;exitY=1;exitDx=0;exitDy=0;" parent="l8-Kg4PxLdRytkkaWZpK-70" source="l8-Kg4PxLdRytkkaWZpK-104" target="l8-Kg4PxLdRytkkaWZpK-163" edge="1">
          <mxGeometry width="50" height="50" relative="1" as="geometry">
            <mxPoint x="720" y="860" as="sourcePoint" />
            <mxPoint x="770" y="810" as="targetPoint" />
          </mxGeometry>
        </mxCell>
        <mxCell id="l8-Kg4PxLdRytkkaWZpK-130" value="&lt;font style=&quot;font-size: 11px;&quot;&gt;SQS&lt;/font&gt;" style="text;html=1;strokeColor=none;fillColor=none;align=center;verticalAlign=middle;whiteSpace=wrap;rounded=0;" parent="l8-Kg4PxLdRytkkaWZpK-70" vertex="1">
          <mxGeometry x="273" y="1240" width="30" height="30" as="geometry" />
        </mxCell>
        <mxCell id="l8-Kg4PxLdRytkkaWZpK-171" value="" style="sketch=0;points=[[0,0,0],[0.25,0,0],[0.5,0,0],[0.75,0,0],[1,0,0],[0,1,0],[0.25,1,0],[0.5,1,0],[0.75,1,0],[1,1,0],[0,0.25,0],[0,0.5,0],[0,0.75,0],[1,0.25,0],[1,0.5,0],[1,0.75,0]];outlineConnect=0;fontColor=#232F3E;fillColor=#E7157B;strokeColor=#ffffff;dashed=0;verticalLabelPosition=bottom;verticalAlign=top;align=center;html=1;fontSize=12;fontStyle=0;aspect=fixed;shape=mxgraph.aws4.resourceIcon;resIcon=mxgraph.aws4.sqs;" parent="l8-Kg4PxLdRytkkaWZpK-70" vertex="1">
          <mxGeometry x="258" y="1180" width="60" height="60" as="geometry" />
        </mxCell>
        <mxCell id="l8-Kg4PxLdRytkkaWZpK-173" value="" style="endArrow=classic;html=1;rounded=0;entryX=0;entryY=0.5;entryDx=0;entryDy=0;entryPerimeter=0;exitX=1;exitY=0.5;exitDx=0;exitDy=0;exitPerimeter=0;" parent="l8-Kg4PxLdRytkkaWZpK-70" source="l8-Kg4PxLdRytkkaWZpK-171" target="l8-Kg4PxLdRytkkaWZpK-156" edge="1">
          <mxGeometry width="50" height="50" relative="1" as="geometry">
            <mxPoint x="298" y="1240" as="sourcePoint" />
            <mxPoint x="348" y="1190" as="targetPoint" />
          </mxGeometry>
        </mxCell>
        <mxCell id="l8-Kg4PxLdRytkkaWZpK-156" value="" style="sketch=0;points=[[0,0,0],[0.25,0,0],[0.5,0,0],[0.75,0,0],[1,0,0],[0,1,0],[0.25,1,0],[0.5,1,0],[0.75,1,0],[1,1,0],[0,0.25,0],[0,0.5,0],[0,0.75,0],[1,0.25,0],[1,0.5,0],[1,0.75,0]];outlineConnect=0;fontColor=#232F3E;fillColor=#ED7100;strokeColor=#ffffff;dashed=0;verticalLabelPosition=bottom;verticalAlign=top;align=center;html=1;fontSize=12;fontStyle=0;aspect=fixed;shape=mxgraph.aws4.resourceIcon;resIcon=mxgraph.aws4.lambda;" parent="l8-Kg4PxLdRytkkaWZpK-70" vertex="1">
          <mxGeometry x="400.5" y="1180" width="60" height="60" as="geometry" />
        </mxCell>
        <mxCell id="l8-Kg4PxLdRytkkaWZpK-137" value="&lt;font style=&quot;font-size: 11px;&quot;&gt;Point Mass Simulator&lt;/font&gt;" style="text;html=1;strokeColor=none;fillColor=none;align=center;verticalAlign=middle;whiteSpace=wrap;rounded=0;" parent="l8-Kg4PxLdRytkkaWZpK-70" vertex="1">
          <mxGeometry x="372.25" y="1240" width="116.5" height="30" as="geometry" />
        </mxCell>
        <mxCell id="l8-Kg4PxLdRytkkaWZpK-180" value="" style="sketch=0;points=[[0,0,0],[0.25,0,0],[0.5,0,0],[0.75,0,0],[1,0,0],[0,1,0],[0.25,1,0],[0.5,1,0],[0.75,1,0],[1,1,0],[0,0.25,0],[0,0.5,0],[0,0.75,0],[1,0.25,0],[1,0.5,0],[1,0.75,0]];outlineConnect=0;fontColor=#232F3E;fillColor=#8C4FFF;strokeColor=#ffffff;dashed=0;verticalLabelPosition=bottom;verticalAlign=top;align=center;html=1;fontSize=12;fontStyle=0;aspect=fixed;shape=mxgraph.aws4.resourceIcon;resIcon=mxgraph.aws4.api_gateway;" parent="l8-Kg4PxLdRytkkaWZpK-70" vertex="1">
          <mxGeometry x="550" y="190" width="60" height="60" as="geometry" />
        </mxCell>
        <mxCell id="l8-Kg4PxLdRytkkaWZpK-164" value="" style="sketch=0;points=[[0,0,0],[0.25,0,0],[0.5,0,0],[0.75,0,0],[1,0,0],[0,1,0],[0.25,1,0],[0.5,1,0],[0.75,1,0],[1,1,0],[0,0.25,0],[0,0.5,0],[0,0.75,0],[1,0.25,0],[1,0.5,0],[1,0.75,0]];outlineConnect=0;fontColor=#232F3E;fillColor=#7AA116;strokeColor=#ffffff;dashed=0;verticalLabelPosition=bottom;verticalAlign=top;align=center;html=1;fontSize=12;fontStyle=0;aspect=fixed;shape=mxgraph.aws4.resourceIcon;resIcon=mxgraph.aws4.s3;" parent="l8-Kg4PxLdRytkkaWZpK-70" vertex="1">
          <mxGeometry x="690" y="300" width="60" height="60" as="geometry" />
        </mxCell>
        <mxCell id="l8-Kg4PxLdRytkkaWZpK-132" value="&lt;font style=&quot;font-size: 11px;&quot;&gt;S3 for Tyre Datasets&lt;/font&gt;" style="text;html=1;strokeColor=none;fillColor=none;align=center;verticalAlign=middle;whiteSpace=wrap;rounded=0;" parent="l8-Kg4PxLdRytkkaWZpK-70" vertex="1">
          <mxGeometry x="750" y="330" width="122" height="30" as="geometry" />
        </mxCell>
        <mxCell id="l8-Kg4PxLdRytkkaWZpK-133" value="&lt;font style=&quot;font-size: 11px;&quot;&gt;Tyre Application&lt;/font&gt;" style="text;html=1;strokeColor=none;fillColor=none;align=center;verticalAlign=middle;whiteSpace=wrap;rounded=0;" parent="l8-Kg4PxLdRytkkaWZpK-70" vertex="1">
          <mxGeometry x="750" y="220" width="90" height="30" as="geometry" />
        </mxCell>
        <mxCell id="l8-Kg4PxLdRytkkaWZpK-154" value="" style="sketch=0;points=[[0,0,0],[0.25,0,0],[0.5,0,0],[0.75,0,0],[1,0,0],[0,1,0],[0.25,1,0],[0.5,1,0],[0.75,1,0],[1,1,0],[0,0.25,0],[0,0.5,0],[0,0.75,0],[1,0.25,0],[1,0.5,0],[1,0.75,0]];outlineConnect=0;fontColor=#232F3E;fillColor=#ED7100;strokeColor=#ffffff;dashed=0;verticalLabelPosition=bottom;verticalAlign=top;align=center;html=1;fontSize=12;fontStyle=0;aspect=fixed;shape=mxgraph.aws4.resourceIcon;resIcon=mxgraph.aws4.lambda;" parent="l8-Kg4PxLdRytkkaWZpK-70" vertex="1">
          <mxGeometry x="690" y="190" width="60" height="60" as="geometry" />
        </mxCell>
        <mxCell id="l8-Kg4PxLdRytkkaWZpK-152" value="" style="endArrow=classic;startArrow=none;html=1;rounded=0;entryX=0.5;entryY=1;entryDx=0;entryDy=0;entryPerimeter=0;exitX=0.5;exitY=0;exitDx=0;exitDy=0;exitPerimeter=0;endFill=1;startFill=0;" parent="l8-Kg4PxLdRytkkaWZpK-70" source="l8-Kg4PxLdRytkkaWZpK-164" target="l8-Kg4PxLdRytkkaWZpK-154" edge="1">
          <mxGeometry width="50" height="50" relative="1" as="geometry">
            <mxPoint x="830.5" y="314" as="sourcePoint" />
            <mxPoint x="829.5" y="231" as="targetPoint" />
          </mxGeometry>
        </mxCell>
        <mxCell id="l8-Kg4PxLdRytkkaWZpK-182" value="" style="endArrow=classic;html=1;rounded=0;entryX=0;entryY=0.5;entryDx=0;entryDy=0;entryPerimeter=0;exitX=1;exitY=0.5;exitDx=0;exitDy=0;exitPerimeter=0;" parent="l8-Kg4PxLdRytkkaWZpK-70" source="l8-Kg4PxLdRytkkaWZpK-180" target="l8-Kg4PxLdRytkkaWZpK-154" edge="1">
          <mxGeometry width="50" height="50" relative="1" as="geometry">
            <mxPoint x="720" y="220" as="sourcePoint" />
            <mxPoint x="770" y="170" as="targetPoint" />
          </mxGeometry>
        </mxCell>
        <mxCell id="l8-Kg4PxLdRytkkaWZpK-183" value="HTTP API Gateway" style="text;html=1;strokeColor=none;fillColor=none;align=center;verticalAlign=middle;whiteSpace=wrap;rounded=0;" parent="l8-Kg4PxLdRytkkaWZpK-70" vertex="1">
          <mxGeometry x="524.5" y="250" width="111" height="30" as="geometry" />
        </mxCell>
        <mxCell id="l8-Kg4PxLdRytkkaWZpK-187" value="" style="sketch=0;outlineConnect=0;fontColor=#232F3E;gradientColor=none;fillColor=#8C4FFF;strokeColor=none;dashed=0;verticalLabelPosition=bottom;verticalAlign=top;align=center;html=1;fontSize=12;fontStyle=0;aspect=fixed;pointerEvents=1;shape=mxgraph.aws4.endpoints;" parent="l8-Kg4PxLdRytkkaWZpK-70" vertex="1">
          <mxGeometry x="326.75" y="241.5" width="48.5" height="48.5" as="geometry" />
        </mxCell>
        <mxCell id="l8-Kg4PxLdRytkkaWZpK-169" value="" style="sketch=0;points=[[0,0,0],[0.25,0,0],[0.5,0,0],[0.75,0,0],[1,0,0],[0,1,0],[0.25,1,0],[0.5,1,0],[0.75,1,0],[1,1,0],[0,0.25,0],[0,0.5,0],[0,0.75,0],[1,0.25,0],[1,0.5,0],[1,0.75,0]];outlineConnect=0;fontColor=#232F3E;fillColor=#8C4FFF;strokeColor=#ffffff;dashed=0;verticalLabelPosition=bottom;verticalAlign=top;align=center;html=1;fontSize=12;fontStyle=0;aspect=fixed;shape=mxgraph.aws4.resourceIcon;resIcon=mxgraph.aws4.cloud_map;" parent="l8-Kg4PxLdRytkkaWZpK-70" vertex="1">
          <mxGeometry x="321" y="315" width="60" height="60" as="geometry" />
        </mxCell>
        <mxCell id="l8-Kg4PxLdRytkkaWZpK-189" value="" style="endArrow=classic;html=1;rounded=0;entryX=0.5;entryY=0;entryDx=0;entryDy=0;entryPerimeter=0;" parent="l8-Kg4PxLdRytkkaWZpK-70" source="l8-Kg4PxLdRytkkaWZpK-187" target="l8-Kg4PxLdRytkkaWZpK-169" edge="1">
          <mxGeometry width="50" height="50" relative="1" as="geometry">
            <mxPoint x="540" y="430" as="sourcePoint" />
            <mxPoint x="590" y="380" as="targetPoint" />
          </mxGeometry>
        </mxCell>
        <mxCell id="l8-Kg4PxLdRytkkaWZpK-190" value="API VPC link" style="text;html=1;strokeColor=none;fillColor=none;align=center;verticalAlign=middle;whiteSpace=wrap;rounded=0;" parent="l8-Kg4PxLdRytkkaWZpK-70" vertex="1">
          <mxGeometry x="381" y="260" width="80" height="30" as="geometry" />
        </mxCell>
        <mxCell id="l8-Kg4PxLdRytkkaWZpK-158" value="" style="sketch=0;points=[[0,0,0],[0.25,0,0],[0.5,0,0],[0.75,0,0],[1,0,0],[0,1,0],[0.25,1,0],[0.5,1,0],[0.75,1,0],[1,1,0],[0,0.25,0],[0,0.5,0],[0,0.75,0],[1,0.25,0],[1,0.5,0],[1,0.75,0]];outlineConnect=0;fontColor=#232F3E;fillColor=#DD344C;strokeColor=#ffffff;dashed=0;verticalLabelPosition=bottom;verticalAlign=top;align=center;html=1;fontSize=12;fontStyle=0;aspect=fixed;shape=mxgraph.aws4.resourceIcon;resIcon=mxgraph.aws4.amplify;" parent="l8-Kg4PxLdRytkkaWZpK-70" vertex="1">
          <mxGeometry x="311" y="30" width="78" height="78" as="geometry" />
        </mxCell>
        <mxCell id="l8-Kg4PxLdRytkkaWZpK-160" value="Amplify hosted New UI" style="text;html=1;strokeColor=none;fillColor=none;align=center;verticalAlign=middle;whiteSpace=wrap;rounded=0;" parent="l8-Kg4PxLdRytkkaWZpK-70" vertex="1">
          <mxGeometry x="389" y="78" width="92" height="30" as="geometry" />
        </mxCell>
        <mxCell id="l8-Kg4PxLdRytkkaWZpK-100" value="" style="endArrow=classic;html=1;rounded=0;entryX=0.5;entryY=0;entryDx=0;entryDy=0;entryPerimeter=0;exitX=0.5;exitY=1;exitDx=0;exitDy=0;exitPerimeter=0;" parent="l8-Kg4PxLdRytkkaWZpK-70" source="l8-Kg4PxLdRytkkaWZpK-158" target="l8-Kg4PxLdRytkkaWZpK-93" edge="1">
          <mxGeometry width="50" height="50" relative="1" as="geometry">
            <mxPoint x="350" y="-290" as="sourcePoint" />
            <mxPoint x="580" y="-110" as="targetPoint" />
          </mxGeometry>
        </mxCell>
        <mxCell id="l8-Kg4PxLdRytkkaWZpK-181" value="" style="endArrow=classic;html=1;rounded=0;entryX=0;entryY=0;entryDx=0;entryDy=0;entryPerimeter=0;exitX=0;exitY=1;exitDx=0;exitDy=0;" parent="l8-Kg4PxLdRytkkaWZpK-70" source="l8-Kg4PxLdRytkkaWZpK-160" target="l8-Kg4PxLdRytkkaWZpK-180" edge="1">
          <mxGeometry width="50" height="50" relative="1" as="geometry">
            <mxPoint x="720" y="-170" as="sourcePoint" />
            <mxPoint x="770" y="-220" as="targetPoint" />
          </mxGeometry>
        </mxCell>
        <mxCell id="h2PSDPZ_xiZ3m4I9ipto-1" value="" style="endArrow=classic;html=1;rounded=0;exitX=0.5;exitY=1;exitDx=0;exitDy=0;exitPerimeter=0;entryX=0.225;entryY=0.001;entryDx=0;entryDy=0;entryPerimeter=0;" parent="l8-Kg4PxLdRytkkaWZpK-70" source="l8-Kg4PxLdRytkkaWZpK-169" target="l8-Kg4PxLdRytkkaWZpK-89" edge="1">
          <mxGeometry width="50" height="50" relative="1" as="geometry">
            <mxPoint x="150" y="-20" as="sourcePoint" />
            <mxPoint x="150" y="-170" as="targetPoint" />
            <Array as="points">
              <mxPoint x="351" y="450" />
            </Array>
          </mxGeometry>
        </mxCell>
        <mxCell id="sGs659QZt1uN3W4Ckngy-2" value="&lt;font style=&quot;font-size: 11px;&quot;&gt;on s3:ObjectCreated event&lt;/font&gt;" style="text;html=1;strokeColor=none;fillColor=none;align=center;verticalAlign=middle;whiteSpace=wrap;rounded=0;" parent="l8-Kg4PxLdRytkkaWZpK-70" vertex="1">
          <mxGeometry x="985.5" y="1115.75" width="146.5" height="30" as="geometry" />
        </mxCell>
        <mxCell id="sGs659QZt1uN3W4Ckngy-3" value="&lt;font style=&quot;font-size: 11px;&quot;&gt;Weather data Service&lt;/font&gt;" style="text;html=1;strokeColor=none;fillColor=none;align=center;verticalAlign=middle;whiteSpace=wrap;rounded=0;" parent="l8-Kg4PxLdRytkkaWZpK-70" vertex="1">
          <mxGeometry x="1014.75" y="1192.25" width="72" height="30" as="geometry" />
        </mxCell>
        <mxCell id="sGs659QZt1uN3W4Ckngy-4" value="" style="endArrow=classic;html=1;rounded=0;entryX=0.5;entryY=0;entryDx=0;entryDy=0;entryPerimeter=0;exitX=0.5;exitY=1;exitDx=0;exitDy=0;exitPerimeter=0;" parent="l8-Kg4PxLdRytkkaWZpK-70" source="sGs659QZt1uN3W4Ckngy-7" target="sGs659QZt1uN3W4Ckngy-8" edge="1">
          <mxGeometry width="50" height="50" relative="1" as="geometry">
            <mxPoint x="945.25" y="1112" as="sourcePoint" />
            <mxPoint x="945.25" y="1185" as="targetPoint" />
          </mxGeometry>
        </mxCell>
        <mxCell id="sGs659QZt1uN3W4Ckngy-5" value="&lt;font style=&quot;font-size: 11px;&quot;&gt;DynamoDB weather data table&lt;/font&gt;" style="text;html=1;strokeColor=none;fillColor=none;align=center;verticalAlign=middle;whiteSpace=wrap;rounded=0;" parent="l8-Kg4PxLdRytkkaWZpK-70" vertex="1">
          <mxGeometry x="1014.75" y="1290" width="140.5" height="30" as="geometry" />
        </mxCell>
        <mxCell id="sGs659QZt1uN3W4Ckngy-6" value="&lt;font style=&quot;font-size: 11px;&quot;&gt;S3 for Weather files&lt;/font&gt;" style="text;html=1;strokeColor=none;fillColor=none;align=center;verticalAlign=middle;whiteSpace=wrap;rounded=0;" parent="l8-Kg4PxLdRytkkaWZpK-70" vertex="1">
          <mxGeometry x="1014.75" y="1072.25" width="92" height="30" as="geometry" />
        </mxCell>
        <mxCell id="sGs659QZt1uN3W4Ckngy-7" value="" style="sketch=0;points=[[0,0,0],[0.25,0,0],[0.5,0,0],[0.75,0,0],[1,0,0],[0,1,0],[0.25,1,0],[0.5,1,0],[0.75,1,0],[1,1,0],[0,0.25,0],[0,0.5,0],[0,0.75,0],[1,0.25,0],[1,0.5,0],[1,0.75,0]];outlineConnect=0;fontColor=#232F3E;fillColor=#ED7100;strokeColor=#ffffff;dashed=0;verticalLabelPosition=bottom;verticalAlign=top;align=center;html=1;fontSize=12;fontStyle=0;aspect=fixed;shape=mxgraph.aws4.resourceIcon;resIcon=mxgraph.aws4.lambda;" parent="l8-Kg4PxLdRytkkaWZpK-70" vertex="1">
          <mxGeometry x="954.75" y="1162.25" width="60" height="60" as="geometry" />
        </mxCell>
        <mxCell id="sGs659QZt1uN3W4Ckngy-8" value="" style="sketch=0;points=[[0,0,0],[0.25,0,0],[0.5,0,0],[0.75,0,0],[1,0,0],[0,1,0],[0.25,1,0],[0.5,1,0],[0.75,1,0],[1,1,0],[0,0.25,0],[0,0.5,0],[0,0.75,0],[1,0.25,0],[1,0.5,0],[1,0.75,0]];outlineConnect=0;fontColor=#232F3E;fillColor=#C925D1;strokeColor=#ffffff;dashed=0;verticalLabelPosition=bottom;verticalAlign=top;align=center;html=1;fontSize=12;fontStyle=0;aspect=fixed;shape=mxgraph.aws4.resourceIcon;resIcon=mxgraph.aws4.dynamodb;" parent="l8-Kg4PxLdRytkkaWZpK-70" vertex="1">
          <mxGeometry x="954.75" y="1260" width="60" height="60" as="geometry" />
        </mxCell>
        <mxCell id="sGs659QZt1uN3W4Ckngy-9" value="" style="sketch=0;points=[[0,0,0],[0.25,0,0],[0.5,0,0],[0.75,0,0],[1,0,0],[0,1,0],[0.25,1,0],[0.5,1,0],[0.75,1,0],[1,1,0],[0,0.25,0],[0,0.5,0],[0,0.75,0],[1,0.25,0],[1,0.5,0],[1,0.75,0]];outlineConnect=0;fontColor=#232F3E;fillColor=#7AA116;strokeColor=#ffffff;dashed=0;verticalLabelPosition=bottom;verticalAlign=top;align=center;html=1;fontSize=12;fontStyle=0;aspect=fixed;shape=mxgraph.aws4.resourceIcon;resIcon=mxgraph.aws4.s3;" parent="l8-Kg4PxLdRytkkaWZpK-70" vertex="1">
          <mxGeometry x="954.75" y="1042.25" width="60" height="60" as="geometry" />
        </mxCell>
        <mxCell id="sGs659QZt1uN3W4Ckngy-10" value="" style="endArrow=classic;html=1;rounded=0;entryX=0.5;entryY=0;entryDx=0;entryDy=0;entryPerimeter=0;exitX=0.5;exitY=1;exitDx=0;exitDy=0;exitPerimeter=0;" parent="l8-Kg4PxLdRytkkaWZpK-70" source="sGs659QZt1uN3W4Ckngy-9" target="sGs659QZt1uN3W4Ckngy-7" edge="1">
          <mxGeometry width="50" height="50" relative="1" as="geometry">
            <mxPoint x="1332.75" y="999.5" as="sourcePoint" />
            <mxPoint x="1382.75" y="949.5" as="targetPoint" />
          </mxGeometry>
        </mxCell>
        <mxCell id="sGs659QZt1uN3W4Ckngy-15" value="" style="endArrow=classic;html=1;rounded=0;entryX=0.5;entryY=0;entryDx=0;entryDy=0;entryPerimeter=0;" parent="l8-Kg4PxLdRytkkaWZpK-70" target="sGs659QZt1uN3W4Ckngy-9" edge="1">
          <mxGeometry width="50" height="50" relative="1" as="geometry">
            <mxPoint x="889" y="730" as="sourcePoint" />
            <mxPoint x="747" y="1052" as="targetPoint" />
          </mxGeometry>
        </mxCell>
        <mxCell id="q6q-s7w7EBOLDeXrr2Qp-1" value="" style="sketch=0;outlineConnect=0;fontColor=#232F3E;gradientColor=none;fillColor=#8C4FFF;strokeColor=none;dashed=0;verticalLabelPosition=bottom;verticalAlign=top;align=center;html=1;fontSize=12;fontStyle=0;aspect=fixed;pointerEvents=1;shape=mxgraph.aws4.application_load_balancer;" vertex="1" parent="l8-Kg4PxLdRytkkaWZpK-70">
          <mxGeometry x="1189" y="295" width="60" height="60" as="geometry" />
        </mxCell>
        <mxCell id="q6q-s7w7EBOLDeXrr2Qp-2" value="Application Load Balancer" style="text;html=1;strokeColor=none;fillColor=none;align=center;verticalAlign=middle;whiteSpace=wrap;rounded=0;" vertex="1" parent="l8-Kg4PxLdRytkkaWZpK-70">
          <mxGeometry x="1260" y="325" width="150" height="30" as="geometry" />
        </mxCell>
        <mxCell id="sGs659QZt1uN3W4Ckngy-13" value="" style="endArrow=classic;startArrow=classic;html=1;rounded=0;strokeWidth=2;strokeColor=#FF99CC;exitX=0.5;exitY=0;exitDx=0;exitDy=0;exitPerimeter=0;" parent="l8-Kg4PxLdRytkkaWZpK-70" source="sGs659QZt1uN3W4Ckngy-1" target="q6q-s7w7EBOLDeXrr2Qp-1" edge="1">
          <mxGeometry width="50" height="50" relative="1" as="geometry">
            <mxPoint x="747" y="630" as="sourcePoint" />
            <mxPoint x="932" y="375" as="targetPoint" />
          </mxGeometry>
        </mxCell>
        <mxCell id="q6q-s7w7EBOLDeXrr2Qp-3" value="" style="endArrow=classic;startArrow=classic;html=1;rounded=0;exitX=0.5;exitY=0;exitDx=0;exitDy=0;exitPerimeter=0;strokeColor=#007FFF;strokeWidth=2;" edge="1" parent="l8-Kg4PxLdRytkkaWZpK-70" source="l8-Kg4PxLdRytkkaWZpK-96" target="q6q-s7w7EBOLDeXrr2Qp-1">
          <mxGeometry width="50" height="50" relative="1" as="geometry">
            <mxPoint x="545" y="630" as="sourcePoint" />
            <mxPoint x="924" y="366" as="targetPoint" />
          </mxGeometry>
        </mxCell>
        <mxCell id="l8-Kg4PxLdRytkkaWZpK-101" value="" style="endArrow=classic;html=1;rounded=0;startArrow=classic;startFill=1;" parent="1" source="l8-Kg4PxLdRytkkaWZpK-184" target="l8-Kg4PxLdRytkkaWZpK-74" edge="1">
          <mxGeometry width="50" height="50" relative="1" as="geometry">
            <mxPoint x="984" y="-0.5460000000000491" as="sourcePoint" />
            <mxPoint x="700" y="210" as="targetPoint" />
          </mxGeometry>
        </mxCell>
        <mxCell id="l8-Kg4PxLdRytkkaWZpK-124" value="Onboard firmware" style="text;html=1;strokeColor=none;fillColor=none;align=center;verticalAlign=middle;whiteSpace=wrap;rounded=0;" parent="1" vertex="1">
          <mxGeometry x="1040" y="228" width="110" height="30" as="geometry" />
        </mxCell>
        <mxCell id="l8-Kg4PxLdRytkkaWZpK-165" value="Users" style="sketch=0;outlineConnect=0;fontColor=#232F3E;gradientColor=none;strokeColor=#232F3E;fillColor=#ffffff;dashed=0;verticalLabelPosition=bottom;verticalAlign=top;align=center;html=1;fontSize=12;fontStyle=0;aspect=fixed;shape=mxgraph.aws4.resourceIcon;resIcon=mxgraph.aws4.users;" parent="1" vertex="1">
          <mxGeometry x="360" y="180" width="60" height="60" as="geometry" />
        </mxCell>
        <mxCell id="l8-Kg4PxLdRytkkaWZpK-167" value="" style="endArrow=classic;html=1;rounded=0;entryX=0.5;entryY=0;entryDx=0;entryDy=0;entryPerimeter=0;" parent="1" source="l8-Kg4PxLdRytkkaWZpK-165" target="l8-Kg4PxLdRytkkaWZpK-158" edge="1">
          <mxGeometry width="50" height="50" relative="1" as="geometry">
            <mxPoint x="510" y="-20" as="sourcePoint" />
            <mxPoint x="560" y="-70" as="targetPoint" />
          </mxGeometry>
        </mxCell>
        <mxCell id="l8-Kg4PxLdRytkkaWZpK-184" value="" style="sketch=0;outlineConnect=0;fontColor=#232F3E;gradientColor=none;fillColor=#7AA116;strokeColor=none;dashed=0;verticalLabelPosition=bottom;verticalAlign=top;align=center;html=1;fontSize=12;fontStyle=0;aspect=fixed;pointerEvents=1;shape=mxgraph.aws4.car;" parent="1" vertex="1">
          <mxGeometry x="945" y="180" width="78" height="78" as="geometry" />
        </mxCell>
        <mxCell id="01VwCHsqwLrXQJ0_By6G-1" value="" style="image;sketch=0;aspect=fixed;html=1;points=[];align=center;fontSize=12;image=img/lib/mscae/Docker.svg;" parent="1" vertex="1">
          <mxGeometry x="-70" y="580" width="60" height="49.2" as="geometry" />
        </mxCell>
        <mxCell id="01VwCHsqwLrXQJ0_By6G-3" value="" style="endArrow=classic;html=1;rounded=0;" parent="1" target="l8-Kg4PxLdRytkkaWZpK-125" edge="1">
          <mxGeometry width="50" height="50" relative="1" as="geometry">
            <mxPoint y="600" as="sourcePoint" />
            <mxPoint x="50" y="550" as="targetPoint" />
          </mxGeometry>
        </mxCell>
        <mxCell id="sGs659QZt1uN3W4Ckngy-12" value="Weather Station" style="text;html=1;strokeColor=none;fillColor=none;align=center;verticalAlign=middle;whiteSpace=wrap;rounded=0;" parent="1" vertex="1">
          <mxGeometry x="1310" y="228.00000000000006" width="110" height="30" as="geometry" />
        </mxCell>
        <mxCell id="sGs659QZt1uN3W4Ckngy-11" value="" style="sketch=0;outlineConnect=0;fontColor=#232F3E;gradientColor=none;fillColor=#7AA116;strokeColor=none;dashed=0;verticalLabelPosition=bottom;verticalAlign=top;align=center;html=1;fontSize=12;fontStyle=0;aspect=fixed;pointerEvents=1;shape=mxgraph.aws4.car;" parent="1" vertex="1">
          <mxGeometry x="1220" y="180" width="78" height="78" as="geometry" />
        </mxCell>
        <mxCell id="q6q-s7w7EBOLDeXrr2Qp-5" value="" style="endArrow=classic;html=1;rounded=0;startArrow=classic;startFill=1;" edge="1" parent="1" source="sGs659QZt1uN3W4Ckngy-11" target="q6q-s7w7EBOLDeXrr2Qp-1">
          <mxGeometry width="50" height="50" relative="1" as="geometry">
            <mxPoint x="994" y="268" as="sourcePoint" />
            <mxPoint x="994" y="595" as="targetPoint" />
          </mxGeometry>
        </mxCell>
      </root>
    </mxGraphModel>
  </diagram>
</mxfile>
